<svg id="renders" xmlns="http://www.w3.org/2000/svg" viewBox="0 0 24 24">
  <defs>
    <linearGradient id="linear-gradient" x1="-283.38" y1="-126.1" x2="-273.94" y2="-138.93" gradientTransform="matrix(1 0 0 -1 287 -125.48)" gradientUnits="userSpaceOnUse">
      <stop offset="0"/>
      <stop offset="1"/>
    </linearGradient>
    <linearGradient id="linear-gradient-2" x1="-275.94" y1="-130.23" x2="-274.8" y2="-138.06" gradientTransform="matrix(1 0 0 -1 287 -125.48)" gradientUnits="userSpaceOnUse">
      <stop offset="0" stop-color="#ffea83"/>
      <stop offset=".08" stop-color="#ffdd35"/>
      <stop offset="1" stop-color="#ffa800"/>
    </linearGradient>
    <style>
      .cls-2{fill:#f9d89f}
    </style>
  </defs>
  <path fill="#ccc" d="M0 0h24v24H0z"/>
  <path d="M12 23a11 11 0 1 0 .01-21.99A11 11 0 0 0 12 23Z" fill="url(#linear-gradient)" stroke="#f9d89f" stroke-width=".17"/>
  <path d="m12.88 10.27-1.75.35s-.05.03-.05.06l-.11 1.83s.04.08.08.07l.49-.11s.09.03.08.08l-.15.71s.04.09.08.07l.3-.09s.09.03.08.08l-.23 1.12c-.01.07.08.11.12.05l.03-.04 1.43-2.87s-.02-.1-.07-.09l-.5.1s-.09-.04-.07-.08l.33-1.14s-.03-.09-.07-.08Z" fill="url(#linear-gradient-2)"/>
  <path class="cls-2" d="M15.89 12.7c.98-1.15 1.32-2.32.85-3.13-.35-.6-1.08-.91-2.05-.93a.21.21 0 0 0-.11.04c-.03.03-.04.07-.05.11 0 .04.01.08.04.11s.07.05.11.05c.87.01 1.5.28 1.78.77.39.68.09 1.71-.82 2.78l-.03.05v.06c0 .02 0 .04.02.06l.04.05.05.03h.06c.02 0 .04 0 .06-.02.02 0 .03-.02.05-.04Zm-2.51-3.91c-.88.19-1.82.56-2.73 1.08-2.23 1.29-3.69 3.19-3.49 4.57 0 .02 0 .04.02.06l.04.04.05.03h.06c.02 0 .04 0 .06-.02a.08.08 0 0 0 .04-.04l.03-.05v-.06c-.18-1.22 1.2-3.03 3.34-4.26a9.44 9.44 0 0 1 2.64-1.05l.06-.02.04-.04.02-.06v-.06l-.02-.06-.04-.04-.06-.02h-.06Z"/>
  <path class="cls-2" d="M10.49 8.73c-1.49-.27-2.67.01-3.14.83-.35.61-.25 1.41.24 2.28 0 .02.02.03.04.05l.05.03h.06c.02 0 .04 0 .06-.02l.05-.04.03-.05v-.06c0-.02 0-.04-.02-.06-.44-.78-.53-1.47-.24-1.97.39-.68 1.44-.93 2.82-.68.04 0 .08 0 .11-.03.03-.02.06-.06.06-.1 0-.04 0-.08-.02-.11s-.06-.06-.1-.06Z"/>
  <path class="cls-2" d="M10.65 14.69a9.75 9.75 0 0 1-2.31-1.85v-.06l.01-.06c0-.02.02-.03.04-.05l.05-.03h.06l.06.01c.02 0 .03.02.05.04a9.15 9.15 0 0 0 2.21 1.74c2.07 1.2 4.26 1.51 5.28.82l.06-.02h.06l.06.02.04.04.02.06v.06l-.02.06-.04.04c-1.14.77-3.44.44-5.61-.81Z"/>
  <path class="cls-2" d="M9.76 15.4c.51 1.43 1.35 2.31 2.29 2.31.69 0 1.32-.47 1.81-1.29l.02-.06v-.06a.05.05 0 0 0-.03-.05l-.04-.04-.06-.02h-.06a.05.05 0 0 0-.05.03l-.04.05c-.44.74-.99 1.14-1.55 1.14-.78 0-1.53-.78-2-2.1 0-.02-.02-.04-.03-.05l-.05-.04-.06-.02h-.06c-.02 0-.04.02-.05.03l-.04.05-.01.06v.06Zm4.67-.28c.26-.85.41-1.82.41-2.84 0-2.54-.89-4.72-2.15-5.28a.13.13 0 0 0-.12 0 .1.1 0 0 0-.08.08.13.13 0 0 0 0 .12c.01.04.04.07.08.09 1.13.5 1.97 2.57 1.97 5 0 .99-.14 1.93-.39 2.75v.06c0 .02 0 .04.02.06l.04.05.05.03h.06c.02 0 .04 0 .06-.02.02 0 .03-.02.05-.04l.03-.05Zm2.88-.15c0-.4-.33-.73-.73-.73s-.73.33-.73.73.33.73.73.73.73-.33.73-.73Zm-.31 0a.42.42 0 0 1-.12.3.42.42 0 0 1-.3.12.42.42 0 0 1-.3-.12.42.42 0 0 1-.12-.3c0-.11.04-.22.12-.3.08-.08.19-.12.3-.12s.22.04.3.12c.08.08.12.19.12.3Zm-9.5.73c.4 0 .73-.33.73-.73s-.33-.73-.73-.73-.73.33-.73.73.33.73.73.73Zm0-.31a.42.42 0 0 1-.3-.12c-.08-.08-.12-.19-.12-.3s.04-.22.12-.3c.08-.08.19-.12.3-.12s.22.04.3.12c.08.08.12.19.12.3s-.04.22-.12.3a.42.42 0 0 1-.3.12Z"/>
  <path class="cls-2" d="M12.05 7.74c.4 0 .73-.33.73-.73s-.33-.73-.73-.73-.73.33-.73.73.33.73.73.73Zm0-.31a.42.42 0 0 1-.3-.12c-.08-.08-.12-.19-.12-.3s.04-.22.12-.3c.08-.08.19-.12.3-.12s.22.04.3.12c.08.08.12.19.12.3s-.04.22-.12.3a.42.42 0 0 1-.3.12Z"/>
</svg>
